<?xml version="1.0" standalone="no"?>
<!DOCTYPE svg PUBLIC "-//W3C//DTD SVG 20010904//EN"
 "http://www.w3.org/TR/2001/REC-SVG-20010904/DTD/svg10.dtd">
<svg version="1.0" xmlns="http://www.w3.org/2000/svg"
 width="512.000000pt" height="512.000000pt" viewBox="0 0 512.000000 512.000000"
 preserveAspectRatio="xMidYMid meet">
<metadata>
Created by potrace 1.16, written by Peter Selinger 2001-2019
</metadata>
<g transform="translate(0.000000,512.000000) scale(0.100000,-0.100000)"
fill="#000000" stroke="none">
<path d="M2460 4671 c-19 -11 -45 -30 -57 -43 -12 -13 -233 -338 -491 -723
l-469 -700 -550 -5 -550 -5 -41 -29 c-51 -35 -92 -112 -92 -173 0 -57 550
-2064 584 -2131 36 -71 113 -145 193 -184 l68 -33 1505 0 1505 0 69 34 c82 40
162 117 197 191 38 78 579 2060 579 2119 0 65 -39 141 -92 177 l-41 29 -548 3
-548 2 -481 719 c-456 681 -484 720 -529 745 -61 33 -156 36 -211 7z m398
-1031 l292 -440 -590 0 -590 0 292 440 c161 242 295 439 298 439 3 0 137 -197
298 -439z m1521 -977 c-16 -60 -120 -441 -232 -848 l-204 -740 -1381 -3 -1381
-2 -15 52 c-9 29 -110 399 -226 823 -116 424 -215 782 -220 798 l-9 27 1849 0
1848 0 -29 -107z"/>
<path d="M2426 2330 c-223 -71 -347 -314 -276 -542 38 -122 144 -233 263 -275
71 -25 223 -25 294 0 213 74 332 317 263 539 -69 223 -318 350 -544 278z"/>
</g>
</svg>
